<svg width="650" height="450" viewBox="0 0 650 450" fill="none" xmlns="http://www.w3.org/2000/svg">
<path d="M129.5 12.5L128.2 14.2L126.5 15.5L126.4 14.3L126 13.2L125.4 12.3L124.5 11.5L126 10.8L127.3 10.7L128.5 11.3L129.5 12.5Z" stroke="white"/>
<path d="M130.5 15.5L161.1 27.2L191.5 39.5L188.3 41.1L185.2 42.9L182.2 44.9L179.4 47.1L176.7 49.4L174.2 51.9L171.8 54.6L169.5 57.5L157.3 72.6L145.5 88L140.2 86.9L135.1 85.2L130.2 82.9L125.5 80L122.5 79.3L119.5 78.9L116.5 78.8L113.5 79L112 79.2L110.7 79.7L109.5 80.5L108.5 81.5L106.5 82.5L104.3 83.6L102.2 84.8L100.3 86.1L98.6 87.5L97.2 89L95.9 90.6L94.8 92.3L93.9 94.1L93 95.9L92.4 97.9L92 99.9L91.8 102V104.2L92 106.5L92.4 108.9L92.9 111.4L93.6 115L94.7 118.2L96.3 121L98.3 123.3L100.7 125.2L103.5 126.7L106.7 127.8L110.4 128.4V129.9L109.9 131.4L90.9 154.4L89.4 160L87.4 165.4L73.4 181.4L59.7 176.5L46.1 171.3L32.7 165.8L19.5 160L18.4 159.8L17.5 159.5L16.8 159.1L16.3 158.6L16 158L15.9 157.3L16.1 156.5L16.5 155.6L18.3 153.3L20.6 151.5L21.6 149.7L22.1 147.5L72.3 86.1L122 24.5L124.1 23.9L125.7 22.9L126.8 21.4L127.5 19.5L127.8 18.2L128.4 17.1L129.3 16.2L130.5 15.5Z" stroke="white"/>
<path d="M129.5 12.5H131.5L130.8 13.9L130.5 15.5L129.3 16.2L128.4 17.1L127.8 18.2L127.5 19.5H126.5V18.4L126 17.5L124.4 19.1L122.5 20.5V19.5L124.3 17.2L126.6 15.4L128.3 14.1L129.5 12.5Z" stroke="white"/>
<path d="M126.5 19.5L126 20.5L125.5 21.3L125 21.8L124.5 22.1H124L123.5 21.8L123 21.3L122.5 20.5L124.4 19.1L126 17.5L126.5 18.4V19.5Z" stroke="white"/>
<path d="M122.5 19.5V20.5L123 21.3L123.5 21.8L124 22H124.5L125 21.7L125.5 21.2L126 20.4L126.5 19.4H127.5L126.8 21.3L125.7 22.8L124.1 23.8L122 24.4L72.2 86.1L22 147.5L21.5 149.7L20.5 151.5L20.6 150.6L20.5 149.8L20.1 149.1L19.5 148.5L122.5 19.5Z" stroke="white"/>
<path d="M131.5 12.5L162.6 25.2L193.5 38.5H192.8L192.2 38.6L191.8 39L191.5 39.5L161.1 27.2L130.5 15.5L130.8 13.9L131.5 12.5Z" stroke="white"/>
<path d="M215.5 44.5L219.5 45L223.5 46L314.4 84L405.5 121.5L407.5 123.5L404.5 125.5L404 127.5L403.2 129.3L402 131L400.5 132.5L399.2 133.2L397.8 133.4L396.4 133.2L395 132.5L297.2 92.4L199.5 52L200.2 50.6L201.1 49.4L202.2 48.4L203.5 47.6H213.5V46.5L213.8 45.6L214.5 45L215.5 44.5Z" stroke="white"/>
<path d="M215.5 43.5V44.5L214.5 44.9L213.8 45.5L213.5 46.4V47.5H203.5L206.9 45.1L210.5 43L211.9 42.6L213.2 42.5L214.4 42.8L215.5 43.5Z" stroke="white"/>
<path d="M186.5 50.5L189.9 51.5L193.5 52L194.2 52.9L194.4 53.8L194.2 54.7L193.5 55.6L174.6 78L156 100.6L137.6 123.5L119.5 146.6L101.5 145.1L132.2 107.8L163 70.5L166.1 65.4L169.5 60.5L171.6 57.9L174 55.5L176.6 53.4L179.5 51.5L183 50.7L186.5 50.5Z" stroke="white"/>
<path d="M219.5 42.5L410.5 120.5L411.3 121.3L412.2 121.9L413.3 122.3L414.5 122.5L415.3 122.8L415.6 123.6L414 123.9L412.6 124.6L409.3 122.8L405.6 121.6L314.4 84L223.5 46L219.5 45L215.5 44.5V43.5L216.6 43.6L217.7 43.5L218.6 43.1L219.5 42.5Z" stroke="white"/>
<path d="M446.5 74.5L444.5 78.5L443.4 71L443 63.5L444.2 66.1L445.2 68.8L446 71.6L446.5 74.5Z" stroke="white"/>
<path d="M446.5 74.5L447.6 78.5L448.5 82.5L446.5 81.5L445.2 80.2L444.5 78.5L446.5 74.5Z" stroke="white"/>
<path d="M104.5 89.5L106 87L107.8 84.8L110 83L112.5 81.5L114 81L115.5 80.7H117L118.5 80.9L124.7 82.9L130.8 85.2L136.7 87.9L142.5 90.9L129.6 107.3L116.5 123.4L114.1 125.3L112 127.4L108.3 126L104.8 124.3L101.5 122.3L98.5 119.9L97.8 115.8L97.5 111.8L97.6 107.8L98.1 103.9L99.1 100.1L100.5 96.4L102.3 92.8L104.5 89.5Z" stroke="white"/>
<path d="M446.5 85.5V86.5L449.2 95.4L451.6 104.4L453.7 113.5L455.5 122.6L449.5 133.6L446.8 135.8L444.2 138.2L441.8 140.8L439.5 143.6L425.5 162.6L425 162.3L424.7 161.9L424.5 161.3V160.6L424.9 157.1L425.5 153.6L426.4 150.9L427 148.1L427.4 145.2L427.5 142.2L427.2 138.8L426.4 135.7L425.3 132.7L424.4 129.7L423.2 128L421.8 126.6L420.2 125.5L418.4 124.7L416.8 124.4L415.4 123.7L415.1 122.9L414.3 122.6L413.8 121L413.9 119.5L414.6 118L415.8 116.6L440.8 85.6L441.5 84.7L442.2 84.1L442.9 83.7L443.6 83.6L444.3 83.7L445 84.1L445.7 84.7L446.5 85.5Z" stroke="white"/>
<path d="M446.5 81.5L448.5 82.5L448.6 83.9L448.3 85L447.6 85.9L446.5 86.5V81.5Z" stroke="white"/>
<path d="M112.5 81.5L110 83L107.8 84.8L106 87L104.5 89.5L103.5 85L104.5 84.6L105.3 84.1L106 83.4L106.5 82.5L108.5 81.5L109.6 81L110.6 80.8L111.6 81L112.5 81.5Z" stroke="white"/>
<path d="M193.5 38.5L200.2 38.3L206.8 38.9L213.2 40.3L219.5 42.5L218.6 43.1L217.7 43.5L216.6 43.6L215.5 43.5L214.4 42.8L213.2 42.5L211.9 42.6L210.5 43L206.9 45.1L203.5 47.5L202.2 48.3L201.1 49.3L200.2 50.5L199.5 51.9L297.2 92.3L395 132.4L396.4 133.1L397.8 133.3L399.2 133.1L400.5 132.4L400 133.4L399.3 134.2L398.5 134.9L397.5 135.4L399.5 136.4L380.2 161L360.7 185.3L341 209.5L321.1 233.5L317 240.1L313.6 247L310.8 254.1L308.6 261.5L307.9 264.8L307.5 268.1V271.3L307.8 274.4L308.4 277.5L309.3 280.5L310.5 283.5L312 286.5L314.3 286.9L316.5 287L318.7 286.8L320.8 286.4L322.8 285.7L324.8 284.7L326.7 283.5L328.5 282L336.4 272.1L344.5 262.5L343.7 261.7L342.9 261.4L342.1 261.7L341.3 262.5L337.6 267.9L333.5 272.9L328.9 277.4L323.8 281.5L321.2 282.2L318.9 282.5L316.8 282.3L315 281.7L313.4 280.6L312.1 279L311 277L310.2 274.5L310.1 271.3L310.2 268.4L310.6 265.8L311.2 263.5V268.5L311.7 273.5L312.4 274.2L313.2 274.5L313.6 276.4L314.2 277.9L315 279.1L316 279.9L317.2 280.3L318.6 280.4L320.3 280.1L322.2 279.5L327 275.6L331.5 271.3L335.6 266.6L339.3 261.6L339.8 260.6L340.5 259.8L341.3 259.1L342.3 258.6L346.4 259.8L350.3 261.6L346.3 263.6L328.3 284.6L326.8 286L325.1 287.1L323.3 288L321.3 288.6L316.3 289.5L311.3 289.6L305.3 285.6L306.1 285.7L306.9 285.6L307.6 285.2L308.3 284.6L307.4 282L306.3 279.6H305.3V277.6L305.4 270.2L306.2 262.9L307.7 255.7L309.8 248.6L312.2 244.5L314.4 240.3L316.4 236L318.2 231.6L310.6 229.6L303.2 227.1L211.1 189.1L119.2 150.6L116.5 153.7L114.1 157L112 160.4L110.2 164L108.7 167.7L107.5 171.5L106.6 175.5L106 179.6L105.1 181.9L104.5 184.4L104.1 186.9L104 189.6L104.1 191.4L104.5 193L105.1 194.4L106 195.7V198.7L106.6 200.3L107.5 201.8L108.6 203.1L110 204.3L132 213.8L131.1 214.4L130.2 214.8L129.1 214.9L128 214.8L123.6 212.7L119.1 210.7L114.5 208.9L109.9 207.3L107.1 206L104.5 204.5L102.1 202.8L99.9 200.8V198.8L102.9 200.8L103.3 199.8L103.4 198.9L103.3 198.1L103 197.4L102.5 196.8L101.8 196.3L100.9 195.9L99.8 195.6L101.8 193.6V187.8L102.3 182.2L103.2 176.7L104.6 171.4L106.5 166.2L108.8 161.2L111.6 156.3L114.8 151.6L115.5 150.6L115.6 149.7L115 148.9L113.8 148.2L116.5 147.7L118.8 146.7L136.9 123.6L155.3 100.7L173.9 78.1L192.8 55.7L193.5 54.8L193.7 53.9L193.5 53L192.8 52.1L189.2 51.6L185.8 50.6L184.5 49.9L182.8 49.6H181.5L180.4 49.9L179.5 50.6L178.8 51.6L175.9 53.5L173.3 55.6L170.9 58L168.8 60.6V57.6L171.1 54.7L173.5 52L176 49.5L178.7 47.2L181.5 45L184.5 43L187.6 41.2L190.8 39.6L191.1 39.1L191.5 38.7L192.1 38.6L193.5 38.5Z" stroke="white"/>
<path d="M397.5 135.5L362.4 179.6L327 223.5L324.6 225.9L322.5 228.5L320.5 229.2L318.5 229.5L220.4 190L122.5 150L121.9 149.1L121.5 148L194 57.5L195 56.3L196.2 55.4L197.5 54.8L199 54.5L298.1 95.3L397.5 135.5Z" stroke="white"/>
<path d="M186.5 50.5L183 50.7L179.5 51.5L180.2 50.5L181.1 49.8L182.2 49.5H183.5L185.2 49.8L186.5 50.5Z" stroke="white"/>
<path d="M197.5 41.5L199.8 42.8L202.5 43.5L203.2 43.8L203.5 44.5L199.7 47.8L195.5 50.5L182.5 47.5L186 45.4L189.7 43.7L193.5 42.4L197.5 41.5Z" stroke="white"/>
<path d="M202.5 43.5L199.8 42.8L197.5 41.5L200.5 40.9L203.5 40.7L206.5 40.9L209.5 41.5L207.7 42.6L205.9 43.3L204.1 43.6L202.5 43.5Z" stroke="white"/>
<path d="M444.5 78.5L445.2 80.2L446.5 81.5V85.5L445.8 84.6L445.1 84L444.4 83.6L443.7 83.5L443 83.6L442.3 84L441.6 84.6L440.9 85.5L415.9 116.5L414.7 117.9L414 119.4L413.9 120.9L414.4 122.5L413.2 122.3L412.1 121.9L411.2 121.3L410.4 120.5L417.8 111.5L425 102.3L432 93L438.8 83.5L441.4 80.8L444.5 78.5Z" stroke="white"/>
<path d="M169.5 57.5V60.5L166.1 65.4L163 70.5L132.2 107.7L101.5 145L119.5 146.5L117.2 147.5L114.5 148L115.7 148.7L116.3 149.5L116.2 150.4L115.5 151.4L114.6 150.2L113.5 149.2L112.1 148.4L110.5 147.9L106.5 147.5L102.9 147.8L99.8 148.7L97.2 150.2L95.1 152.3L93.4 155.1L92.2 158.5L91.5 162.5L90.7 162.8L90 163.5L89.6 167.4L89.5 171.2L89.8 174.9L90.5 178.5L91.3 181.9L92.3 185.2L93.5 188.4L94.9 191.5L98.6 192.8L102.4 193.5L100.4 195.5L100 196.1L99.9 196.8L100 197.6L100.4 198.5V200.5L98.4 199L96.7 197.3L95.4 195.3L94.4 193L91.5 191.5L88.4 190.5L91.4 188.5L91.1 187.8L90.4 187.5L89.3 184.9L88.4 182.2L87.8 179.4L87.4 176.6V165.6L89.4 160.2L90.9 154.6L109.9 131.6L110.4 130.1V128.6L106.7 128L103.5 126.9L100.7 125.4L98.3 123.5L96.3 121.2L94.7 118.4L93.6 115.2L92.9 111.6L92.4 109.1L92 106.7L91.8 104.4V102.2L92 100.1L92.4 98.1L93 96.1L93.8 94.2L94.7 92.4L95.8 90.7L97.1 89.1L98.6 87.6L100.3 86.2L102.2 84.9L104.3 83.7L106.5 82.6L106 83.5L105.3 84.2L104.5 84.7L103.5 85.1L104.5 89.6L102.3 93.1L100.5 96.7L99.1 100.4L98.1 104.2L97.6 108.1L97.5 112.1L97.8 116.1L98.5 120.2L101.5 122.6L104.8 124.6L108.3 126.3L112 127.7L114.1 125.6L116.5 123.7L129.6 107.6L142.5 91L136.7 88L130.8 85.3L124.7 83L118.5 81L117 80.8H115.5L114 81L112.5 81.5L111.6 81L110.6 80.8L109.6 81L108.5 81.5L109.5 80.5L110.7 79.7L112 79.2L113.5 79L116.5 78.8L119.5 78.9L122.5 79.3L125.5 80L130.2 82.9L135.1 85.2L140.2 86.9L145.5 88L157.3 72.6L169.5 57.5Z" stroke="white"/>
<path d="M95.5 108.5L94.8 105.5L94.6 102.6L94.8 99.8L95.4 97.1L96.4 94.5L97.8 92.1L99.7 89.8L102 87.6L99.8 93L97 98.5L96 103.5L95.5 108.5Z" stroke="white"/>
<path d="M448.5 82.5L456.5 115.5L455.8 115.7L455.2 116.1L454.8 116.7L454.5 117.5L455.2 120L455.5 122.5L453.7 113.4L451.6 104.3L449.2 95.3L446.5 86.4L447.6 85.8L448.3 84.9L448.6 83.8L448.5 82.5Z" stroke="white"/>
<path d="M95.5 108.5L96.1 110L96.2 111.5L95.8 113L94.9 114.5L94.7 113V111.5L95 110L95.5 108.5Z" stroke="white"/>
<path d="M456.5 115.5L457.1 116.6L457.5 117.8L457.6 119.1L457.5 120.5L458.6 120.7L459.4 121L459.9 121.4L460.1 121.9L459.9 122.4L459.4 123L458.6 123.7L457.5 124.5L455.5 122.5L455.2 120L454.5 117.5L454.8 116.7L455.2 116.1L455.8 115.7L456.5 115.5Z" stroke="white"/>
<path d="M405.5 121.5L409.2 122.7L412.5 124.5L410.6 125.1L408.6 125.5L406.6 125.6L404.5 125.5L407.5 123.5L405.5 121.5Z" stroke="white"/>
<path d="M412.5 126.5H418.5L419.8 128.3L421.6 129.6L421.3 130.1L420.9 130.5L420.3 130.6H419.6L417.4 130.2L415.5 129.4L413.9 128.2L412.5 126.5Z" stroke="white"/>
<path d="M455.5 122.5L457.5 124.5L456.3 127.5L454.6 130L452.3 132L449.5 133.5L455.5 122.5Z" stroke="white"/>
<path d="M418.5 124.5L420.3 125.3L421.9 126.4L423.3 127.8L424.5 129.5L425.4 132.5L426.5 135.5V141.5L426 147.5L425.5 142.4L424.5 137.5L424 135.4L423.4 133.3L422.5 131.4L421.5 129.5L419.7 128.2L418.4 126.4L419 126L419.2 125.5L419 125L418.5 124.5Z" stroke="white"/>
<path d="M421.5 129.5L422.5 131.4L423.4 133.3L424 135.4L424.5 137.5L422.5 134.5L421.7 135.3L421.5 136.5L420 135.3L419.2 133.9L419 132.3L419.5 130.5H420.2L420.8 130.4L421.2 130L421.5 129.5Z" stroke="white"/>
<path d="M415.5 123.5L416.9 124.2L418.5 124.5L419.1 125.1L419.3 125.6L419.1 126.1L418.5 126.5H412.5L410.1 128.2L407.5 129.5L399.5 136.5L397.5 135.5L398.5 135L399.3 134.3L400 133.5L400.5 132.5L402 131L403.2 129.3L404 127.5L404.5 125.5L406.6 125.6L408.6 125.5L410.6 125.1L412.5 124.5L413.9 123.8L415.5 123.5Z" stroke="white"/>
<path d="M423.5 165.5L465.8 183.3L508.3 200.8L550.9 218L593.6 235L606.2 240.5L618.6 246.5L617.1 247.9L616.1 249.5L615.6 251.4V253.5L613.6 257.5L579 243.1L544.3 228.9L509.5 214.9L474.5 201L471.3 199.3L468.5 197L461 193.8L453.3 191L445.5 188.6L437.5 186.6L433 183.8L428.3 181.4L423.5 179.3L418.5 177.6L416.4 176.6L414.2 175.7L411.9 175L409.6 174.5L405.5 172.8L401.5 170.9L397.5 168.8L393.6 166.5L393 167.4L392.6 168.4L392.5 169.4L392.6 170.5L396.8 171.2L400.9 172.3L404.9 173.7L408.7 175.5L402.7 184.5L389.7 178.5L388 178L386.2 177.7H384.4L382.6 178L387.4 180.5L392.4 182.7L397.4 184.7L402.5 186.5L404.4 187.6L406.4 188.5L408.4 189.1L410.5 189.5L428.5 197.4L446.6 205L464.8 212.4L483.1 219.5L540.8 243.4L598.6 267L599.6 267.6L600.2 268.4L600.6 269.4V270.5H599.6L598.6 271.8L597.9 273.2L597.6 274.8V276.5L597 277.1L596.6 277.8L596.5 278.6L596.6 279.5L485.8 234.7L375 189.5L374 189.7L373.6 190.1L373.8 190.7L374.6 191.5L382 194.8L389.6 197.5L390.2 198.2L390.4 198.9L390.2 199.7L389.6 200.5L389.3 201.3L388.5 201.6L386.8 202.2L385.1 202.5H383.3L381.5 202.1L378.2 200.4L374.7 199.2L371.2 198.4L367.5 198.1L374.9 201.6L382.5 204.6L392.5 208.6L414.2 217.3L435.8 226.3L457.2 235.6L478.5 245.2L505.2 255.6L531.8 266.3L558.2 277.3L584.5 288.7L582.7 291.5L581.5 294.7L580.9 295.6L580.5 296.5L580.4 297.6L580.5 298.7L576.5 298.2L572.5 297.2L475.1 256.6L377.5 216.7H374.5L371 214.1L367.2 212.1L363 210.8L358.5 210.2L362.3 212.5L366.2 214.5L370.3 216.2L374.6 217.6L374 219.2L373.2 220.6L372 221.7L370.6 222.6L366.1 221.5L361.7 220.1L357.4 218.5L353.2 216.6L351.7 217.6L356 220.1L360.4 222.3L365 224.1L369.7 225.6L371.5 226.8L373.4 227.7L375.5 228.3L377.7 228.6L472.1 267.7L566.7 306.6L567.3 307.2L567.6 307.9L567.8 308.7L567.7 309.6L566.9 309.9L566.6 310.7L565.3 312.4L564.4 314.3L563.8 316.4L563.5 318.7L463.9 278.4L364.5 237.7L363.6 237.8L362.8 237.7L362.1 237.3L361.5 236.7L357.5 234.6L353.3 232.7L349 231.1L344.5 229.7L342.5 230.7L346.1 232.6L349.8 234.2L353.6 235.6L357.5 236.7V240.7L355.2 242.5L353.4 244.8H350.4L347.4 244.3L342 241.8L336.4 239.8L335.2 240.1L334.6 240.6L334.7 241.3L335.4 242.2L343.3 245.1L351.4 247.7L354.8 249.4L358.4 250.7L403.7 269.7L449.1 288.5L494.7 307L540.4 325.2L545.5 327.7L550.4 330.7L549.1 331.9L548.1 333.3L547.6 334.9L547.4 336.7L546.8 337.6L546.4 338.5L546.3 339.6L546.4 340.7L538.8 338.5L531.3 336L523.8 333.2L516.5 330.2L475.1 312.7L433.6 295.5L392.1 278.5L350.5 261.7L346.6 259.9L342.5 258.7L342.2 257.9L341.5 257.2L338 256.5L334.6 255.5L331.3 254.2L328.1 252.7L326.6 253.7L329.5 255.8L332.6 257.4L336 258.3L339.6 258.7V261.7L335.9 266.7L331.8 271.4L327.3 275.7L322.5 279.6L320.6 280.2L318.9 280.5L317.5 280.4L316.3 280L315.3 279.2L314.5 278L313.9 276.5L313.5 274.6L312.8 271.1L312.6 267.6L312.8 264.1L313.5 260.6L314.4 255.6L315.9 250.7L317.9 246.1L320.5 241.6L363.3 188.7L406.5 136.1L408.3 135.3L409.9 134.7L411.4 134.3L412.8 134.1L414.1 134L415.3 134.1L416.3 134.4L417.2 134.9L418 135.6L418.7 136.5L419.3 137.6L419.8 138.8L420.1 140.2L420.3 141.8L420.4 143.6V145.6L420.2 149.6L419.4 153.4L418.1 157.1L416.3 160.6L409.1 157.5L401.8 154.6L400.3 155.6L403.3 158.1L413.2 162.1L423.5 165.5Z" stroke="white"/>
<path d="M407.5 129.5H410.5L413.5 130L410.3 131.4L407.3 133.1L404.5 135.1L401.9 137.4L381.1 163L360.4 188.7L339.9 214.5L319.5 240.5L316.6 245.1L314.2 250L312.3 255.1L311 260.5L310.3 261.2L309.5 261.5H308.5L310.7 254.1L313.5 247L316.9 240.1L321 233.5L340.9 209.5L360.6 185.3L380.1 161L399.4 136.5L407.5 129.5Z" stroke="white"/>
<path d="M426.5 135.5L427.3 138.6L427.6 142L427.5 145L427 148L426.4 150.8L425.5 153.5L425.6 152.1L425.5 150.8L425.1 149.6L424.5 148.5V137.5L425.5 142.4L426 147.5L426.5 141.5V135.5Z" stroke="white"/>
<path d="M412.5 126.5L413.8 128.1L415.4 129.3L417.3 130.1L419.5 130.5L419 132.3L419.2 133.9L420 135.3L421.5 136.5L422.2 141.5L422.4 146.5L422.2 151.5L421.5 156.5L420.6 157.9L420.1 159.3L419.9 160.9L420 162.5L420.7 161.9L421.5 161.5L423.4 163.1L425.5 164.5L424.7 165.4L423.5 165.5L413.4 162L403.5 158L400.5 155.5L402 154.5L409.3 157.4L416.5 160.5L418.3 157L419.6 153.3L420.4 149.5L420.6 145.5V143.5L420.5 141.7L420.3 140.1L420 138.7L419.5 137.5L418.9 136.4L418.2 135.5L417.4 134.8L416.5 134.3L415.5 134L414.3 133.9L413 134L411.6 134.2L410.1 134.6L408.5 135.2L406.7 136L363.5 188.6L320.7 241.5L319.9 241.2L319.6 240.4L340 214.4L360.5 188.6L381.2 162.9L402.1 137.4L404.7 135.1L407.5 133.1L410.5 131.4L413.7 130L410.7 129.5H407.7L410.3 128.2L412.5 126.5Z" stroke="white"/>
<path d="M449.5 133.5L444.9 140.6L440 147.5L434.7 154.1L429 160.5L428.1 161.7L427.7 163L427.8 164.3L428.4 165.6L427.4 165.1L426.6 164.4L425.9 163.6L425.4 162.6L439.4 143.6L441.7 140.8L444.1 138.2L446.7 135.8L449.5 133.5Z" stroke="white"/>
<path d="M115.5 151.5L112.3 156.2L109.5 161.1L107.2 166.1L105.3 171.3L103.9 176.6L103 182.1L102.5 187.7V193.5L98.7 192.8L95 191.5L93.6 188.4L92.4 185.2L91.4 181.9L90.6 178.5L90.8 170.5L91.6 162.5L92.3 158.5L93.5 155.1L95.2 152.3L97.3 150.2L99.9 148.7L103 147.8L106.6 147.5L110.6 147.9L112.2 148.4L113.6 149.2L114.7 150.2L115.5 151.5Z" stroke="white"/>
<path d="M19.5 148.5L20.1 149.1L20.5 149.8L20.6 150.6L20.5 151.5L18.2 153.3L16.4 155.6L14.4 156.6L14 156L13.9 155.3L14 154.5L14.4 153.6L15.1 151.8L16.2 150.4L17.6 149.3L19.5 148.5Z" stroke="white"/>
<path d="M305.5 277.5L256.1 257.3L206.5 237.5L162.4 219L118.5 200L112.4 198.5L106.5 196.5V195.5L105.9 191.5L105.7 187.5L105.9 183.5L106.5 179.5L107.1 175.4L108 171.4L109.2 167.6L110.7 163.9L112.5 160.3L114.6 156.9L117 153.6L119.7 150.5L211.6 189L303.7 227L311.1 229.5L318.7 231.5L316.9 235.9L314.9 240.2L312.7 244.4L310.3 248.5L308.2 255.6L306.7 262.8L305.9 270.1L305.5 277.5Z" stroke="white"/>
<path d="M424.5 137.5V148.5L423.3 153.5L422.5 158.5L422 158.2L421.7 157.8L421.5 157.2V156.5L422.2 151.5L422.4 146.5L422.2 141.5L421.5 136.5L421.7 135.3L422.5 134.5L424.5 137.5Z" stroke="white"/>
<path d="M424.5 148.5L425.1 149.6L425.5 150.8L425.6 152.1L425.5 153.5L424.9 157L424.5 160.5L423.6 160.4L423 160L422.6 159.4L422.5 158.5L423.3 153.5L424.5 148.5Z" stroke="white"/>
<path d="M14.5 153.5L14.1 154.4L14 155.2L14.1 155.9L14.5 156.5L14.6 157.4L14.5 158.2L14.1 158.9L13.5 159.5L10.6 158.1L7.5 157L9.6 156.6L11.5 155.9L13.1 154.9L14.5 153.5Z" stroke="white"/>
<path d="M91.5 162.5L90.7 170.5L90.5 178.5L89.8 174.9L89.5 171.2L89.6 167.4L90 163.5L90.7 162.8L91.5 162.5Z" stroke="white"/>
<path d="M16.5 155.5L16.1 156.4L15.9 157.2L16 157.9L16.3 158.5L16.8 159L17.5 159.4L18.4 159.7L19.5 159.9L32.8 165.8L46.2 171.3L59.8 176.5L73.5 181.4L74.8 182.6L76.5 183.4L75.3 184.1L74.1 184.3L72.8 184.1L71.5 183.4L46.4 174L21.5 164L17.4 162L13.5 159.5L14.1 158.9L14.5 158.2L14.6 157.4L14.5 156.5L16.5 155.5Z" stroke="white"/>
<path d="M87.5 176.5L87.9 179.3L88.5 182.1L89.4 184.8L90.5 187.4L90 188.1L89 188.4L82.7 186L76.5 183.4L78.3 179.8L80.5 176.4L83.1 173.3L86 170.4L86.5 173.6L87.5 176.5Z" stroke="white"/>
<path d="M409.5 174.5L408.7 174.8L408.4 175.6L404.6 173.8L400.6 172.4L396.5 171.3L392.3 170.6L392.2 169.5L392.3 168.5L392.7 167.5L393.3 166.6L397.2 168.9L401.2 171L405.2 172.9L409.5 174.5Z" stroke="white"/>
<path d="M87.5 165.5V176.5L86.5 173.7L86 170.5L83.1 173.4L80.5 176.5L78.3 179.9L76.5 183.5L74.8 182.7L73.5 181.5L87.5 165.5Z" stroke="white"/>
<path d="M409.5 174.5L411.8 175L414.1 175.7L416.3 176.6L418.4 177.6L417 178.3L415.5 178.5L414 178.3L412.4 177.6L410.9 178.3L409.6 179.1L408.5 180L407.6 181.1L407 182.3L406.6 183.6L406.4 185V186.5L407.1 186.2L407.4 185.5H409.4V187.5L410.2 188.4L411.4 189L411 189.4L410.4 189.5L408.3 189.1L406.3 188.5L404.3 187.6L402.4 186.5V184.5L408.4 175.5L408.7 174.7L409.5 174.5Z" stroke="white"/>
<path d="M412.5 177.5L407.5 185.5L407.2 186.2L406.5 186.5V185L406.7 183.6L407.1 182.3L407.7 181.1L408.6 180L409.7 179.1L411 178.3L412.5 177.5Z" stroke="white"/>
<path d="M402.5 184.5V186.5L397.4 184.7L392.4 182.7L387.4 180.5L382.6 178L384.4 177.7H386.2L388 178L389.7 178.5L402.5 184.5Z" stroke="white"/>
<path d="M412.5 177.5L414.1 178.2L415.6 178.4L417.1 178.2L418.5 177.5L423.5 179.2L428.3 181.3L433 183.7L437.5 186.5L426.4 183.2L415.5 179.5L413.5 180L411.6 182.9L409.5 185.5H407.5L412.5 177.5Z" stroke="white"/>
<path d="M88.5 190.5L91.6 191.5L94.5 193L95.5 195.3L96.8 197.3L98.5 199L100.5 200.5L102.7 202.5L105.1 204.2L107.7 205.7L110.5 207L115.1 208.6L119.7 210.4L124.2 212.4L128.6 214.5L184 237.1L239.6 259L255.8 266.3L272.2 273.2L288.8 279.6L305.6 285.5L311.6 289.5L313.7 290.2L315.9 290.5L318.2 290.4L320.6 290L321.3 289.3L321.6 288.5L323.6 287.9L325.4 287L327.1 285.9L328.6 284.5L346.6 263.5L350.7 264.2L354.7 265.2L358.7 266.5L362.6 268L544.6 344L569.6 348.5H570.6V350L570.1 351.5L553.7 370.6L537.7 390L522 409.6L506.6 429.5L505.3 430.8L503.9 431.7L502.3 432.3L500.6 432.5L498.2 430.8L495.6 429.5L482.9 424.8L470.3 419.8L457.9 414.5L445.6 408.9L373 379.8L300.7 350.2L228.5 320.3L156.5 290L137.6 283L118.5 276.5L115.7 274.1L112.5 272L97.6 266.9L83 261.1L68.6 254.8L54.5 248L50.1 247.2L46 245.7L42.1 243.7L38.5 241L35.1 239.9L31.5 239.5L31.7 237.4L32.5 235.5L52.7 211.1L72.5 186.5L75 185.5L81.6 188.3L88.5 190.5Z" stroke="white"/>
<path d="M106.5 179.5L105.9 183.5L105.7 187.5L105.9 191.5L106.5 195.5L105.6 194.2L105 192.8L104.6 191.2L104.5 189.4L104.6 186.7L105 184.2L105.6 181.7L106.5 179.5Z" stroke="white"/>
<path d="M71.5 183.5L72.8 184.2L74.1 184.4L75.3 184.2L76.5 183.5L82.7 186.1L89 188.5L90 188.2L90.5 187.5L91.2 187.8L91.5 188.5L88.5 190.5L81.6 188.3L75 185.5L72.5 186.5L52.7 211.1L32.5 235.5L31.7 237.4L31.5 239.5L35.1 239.9L38.5 241L42.1 243.7L46 245.7L50.1 247.2L54.5 248L68.6 254.9L83 261.2L97.6 266.9L112.5 272L115.7 274.1L118.5 276.5L115.2 276L111.9 275.2L108.7 274.2L105.6 273L88.3 265.4L70.9 258.1L53.3 251.1L35.6 244.5L37.1 244.4L37.9 244L38.1 243.2L37.6 242L36.1 241.4L34.6 241L33.1 240.9L31.6 241L32.8 242.2L33.6 243.5L31.3 242.7L29.1 241.5L28.1 242.3L27.3 242.8L26.7 243L26.3 242.9L26.1 242.5V241.8L26.3 240.8L26.7 239.5L49.5 211.7L71.5 183.5Z" stroke="white"/>
<path d="M100.5 195.5L101.6 195.8L102.5 196.2L103.2 196.7L103.7 197.3L104 198L104.1 198.8L104 199.7L103.6 200.7L100.6 198.7L100.2 197.8L100.1 197L100.2 196.3L100.5 195.5Z" stroke="white"/>
<path d="M388.5 201.5L388.3 202.7L387.5 203.5L384.9 204.1L382.5 204.5L374.9 201.5L367.5 198L371.2 198.3L374.7 199.1L378.2 200.3L381.5 202L383.3 202.4H385.1L386.8 202.1L388.5 201.5Z" stroke="white"/>
<path d="M389.5 200.5L390 200.8L390.3 201.2L390.5 201.8V202.5L389.8 203.2L389.6 203.9L389.8 204.7L390.5 205.5L392.5 204.5L392.4 205.4L392.5 206.2L392.9 206.9L393.5 207.5H394.5L394.2 208L393.8 208.4L393.2 208.5H392.5L382.5 204.5L384.9 204.1L387.5 203.5L388.3 202.7L388.5 201.5L389.3 201.2L389.5 200.5Z" stroke="white"/>
<path d="M519.5 251.5L517.8 252L516.5 252.6L515.6 253.3L515.1 254V254.8L515.5 255.6L516.3 256.5L517.5 257.5L456 232.4L394.5 207.5H393.5L394 205.2L395.1 203.4L396.8 202.2L399.1 201.5L454.9 224.6L510.6 248L518.6 250L519.3 250.7L519.5 251.5Z" stroke="white"/>
<path d="M392.5 204.5L390.5 205.5L389.8 204.7L389.6 203.9L389.8 203.2L390.5 202.5L391.3 201.6L392.2 201L393.3 200.8L394.5 201L393.6 201.7L393 202.5L392.6 203.4L392.5 204.5Z" stroke="white"/>
<path d="M421.5 156.5V157.2L421.7 157.8L422 158.2L422.5 158.5L422.6 159.4L423 160L423.6 160.4L424.5 160.5V161.2L424.7 161.8L425 162.2L425.5 162.5L426 163.5L426.7 164.3L427.5 165L428.5 165.5L467.7 181.4L506.5 198L518 202.1L529.5 206L573.1 224.3L616.5 243L620.5 244.2L624.5 245L634.7 253.2L644.5 262L644.1 263.1L643.5 264L635.7 263.9L627.9 263.2L620.2 261.9L612.6 260L571 242.6L529.3 225.4L487.5 208.4L445.6 191.5L437.6 186.5L445.6 188.5L453.4 190.9L461.1 193.7L468.6 196.9L471.4 199.2L474.6 200.9L509.5 214.7L544.3 228.7L579 242.9L613.6 257.3L615.6 253.3L615.5 254.8L615.6 256.3L616 257.8L616.6 259.2L617.3 258.9L617.6 258.2H618.6L624.2 260L629.9 261.1L635.7 261.5L641.6 261.2L637.2 257.6L632.7 254.2L628 251.1L623.1 248.2L621.4 248.8L619.6 249.2L620.6 248.2L621.8 247.4L623.1 246.9L624.6 246.7L623.2 245.7L621.7 245.3L620.2 245.5L618.6 246.3L606.2 240.3L593.6 234.8L550.9 217.8L508.3 200.6L465.8 183.1L423.5 165.3L424.7 165.2L425.5 164.3L423.4 162.9L421.5 161.3L420.7 161.7L420 162.3L419.9 160.7L420.1 159.1L420.6 157.7L421.5 156.5Z" stroke="white"/>
<path d="M374.5 216.5V217.5L370.2 216.1L366.1 214.4L362.2 212.4L358.4 210.1L362.9 210.7L367.1 212L370.9 214L374.5 216.5Z" stroke="white"/>
<path d="M106.5 198.5L156.6 218.7L206.5 239.5L255.9 259.7L305.5 279.5H306.5V283.5L295.4 280L284.5 276L246.6 260L208.6 244.3L170.6 228.8L132.5 213.5L110.5 204L109.1 202.8L108 201.5L107.1 200L106.5 198.5Z" stroke="white"/>
<path d="M377.5 219.5L378.1 219.6L378.5 220L376.6 222.4L374.5 224.5L373.9 225.3L373.4 225.5L372.9 225.1L372.5 224.1L374.9 221.7L377.5 219.5Z" stroke="white"/>
<path d="M409.5 187.5L458.1 207.2L506.6 227.1L555.1 247.2L603.5 267.5L601.8 268.8L600.5 270.5V269.4L600.1 268.4L599.5 267.6L598.5 267L540.7 243.4L483 219.5L464.7 212.4L446.5 205L428.4 197.4L410.4 189.5L411 189.4L411.4 189L410.2 188.4L409.5 187.5Z" stroke="white"/>
<path d="M106.5 196.5L112.4 198.5L118.5 200L162.4 219L206.5 237.5L205.9 237.9L205.7 238.4L205.9 238.9L206.5 239.5L156.6 218.7L106.5 198.5V196.5Z" stroke="white"/>
<path d="M370.5 222.5L369.8 223.9L369.5 225.5L364.8 224L360.2 222.2L355.8 220L351.5 217.5L353 216.5L357.2 218.4L361.5 220L365.9 221.4L370.5 222.5Z" stroke="white"/>
<path d="M590.5 305.5L587.9 305.6L585.5 306.5L584.5 305.4L583.5 304.6L582.5 304.1L581.5 303.9L580.5 304L579.5 304.4L578.5 305.1L577.5 306.1L578.6 306.7L579.5 307.6L578.2 308L576.5 308.1L577.2 308.8L577.5 309.6L575.1 308.3L572.5 307.6L572.2 307.1L571.8 306.7L571.2 306.6H570.5L535.7 291.7L500.8 277L465.7 262.8L430.5 249L404 237.6L377.5 226.5L377 226.2L376.7 225.8L376.5 225.2V224.5L382 221.5L427.6 239.7L473 258.2L518.3 277L563.5 296.1L590.5 305.5Z" stroke="white"/>
<path d="M374.5 216.5H377.5V219.5L374.9 221.6L372.5 224L372.9 225L373.4 225.4L373.9 225.2L374.5 224.4H376.5V225.1L376.7 225.7L377 226.1L377.5 226.4L378.1 227L378.3 227.5L378.1 228L377.5 228.4L375.3 228.1L373.2 227.5L371.3 226.6L369.5 225.4L369.8 223.8L370.5 222.4L371.9 221.5L373.1 220.4L373.9 219L374.5 217.4V216.5Z" stroke="white"/>
<path d="M361.5 236.5H358.5L358.6 237.6L358.5 238.7L358.1 239.6L357.5 240.5V236.5L353.6 235.4L349.8 234L346.1 232.4L342.5 230.5L344.5 229.5L349 230.9L353.3 232.5L357.5 234.4L361.5 236.5Z" stroke="white"/>
<path d="M35.5 244.5L35.2 244L34.8 243.6L34.2 243.5H33.5L32.7 242.2L31.5 241L33 240.9L34.5 241L36 241.4L37.5 242L38 243.2L37.8 244L37 244.4L35.5 244.5Z" stroke="white"/>
<path d="M353.5 244.5L352.8 246.2L351.5 247.5L343.4 244.9L335.5 242L334.8 241.1L334.7 240.4L335.3 239.9L336.5 239.6L342.1 241.6L347.5 244.1L350.5 244.6H353.5" stroke="white"/>
<path d="M377.5 226.5L404 237.6L430.5 249L465.7 262.8L500.8 277L535.7 291.5L570.5 306.4L569.2 308.1L567.5 309.4L567.6 308.5L567.4 307.7L567.1 307L566.5 306.4L471.9 267.5L377.5 228.4L378.1 228L378.3 227.5L378.1 227L377.5 226.5Z" stroke="white"/>
<path d="M361.5 236.5L362.1 237.1L362.8 237.5L363.6 237.6L364.5 237.5V240.5L361.2 244.3L358.5 248.5L359.3 249.4L360.5 249.5L360.2 250L359.8 250.4L359.2 250.5H358.5L354.9 249.2L351.5 247.5L352.8 246.2L353.5 244.5L355.3 242.2L357.6 240.4L358.2 239.5L358.6 238.6L358.7 237.5L358.6 236.4H361.5" stroke="white"/>
<path d="M359.5 238.5L360.3 238.4L361.1 238.5L361.8 238.9L362.5 239.5L361.2 241.8L359.7 243.9L358 245.8L356.1 247.5L356 245.7L356.5 244.1L357.5 242.7L359.1 241.5L359.6 240L359.5 238.5Z" stroke="white"/>
<path d="M618.5 258.5L618.7 254.5L619.5 250.5V249.5L621.3 249.1L623 248.5L627.9 251.4L632.6 254.5L637.1 257.9L641.5 261.5L635.6 261.8L629.8 261.4L624.1 260.3L618.5 258.5Z" stroke="white"/>
<path d="M206.5 237.5L256.1 257.3L305.5 277.5V279.5L255.9 259.7L206.5 239.5L205.9 238.9L205.7 238.4L205.9 237.9L206.5 237.5Z" stroke="white"/>
<path d="M132.5 213.5L170.6 228.8L208.6 244.3L246.6 260L284.5 276L295.4 280L306.5 283.5V279.5L307.6 281.9L308.5 284.5L307.8 285.1L307.1 285.5L306.3 285.6L305.5 285.5L288.7 279.6L272.1 273.2L255.7 266.3L239.5 259L183.9 237.1L128.5 214.5L129.6 214.6L130.7 214.5L131.6 214.1L132.5 213.5Z" stroke="white"/>
<path d="M619.5 249.5V250.5L618.7 250.8L618 251.5L617.5 255V258.5L617.2 259.2L616.5 259.5L615.9 258.1L615.5 256.6L615.4 255.1L615.5 253.6V251.5L616 249.6L617 248L618.5 246.6L620.1 245.8L621.6 245.6L623.1 246L624.5 247L623 247.2L621.7 247.7L620.5 248.5L619.5 249.5Z" stroke="white"/>
<path d="M319.5 240.5L319.8 241.3L320.6 241.6L318 246.1L316 250.7L314.5 255.6L313.6 260.6L311.6 263.6L311 265.9L310.6 268.5L310.5 271.4L310.6 274.6L310 271.5L309.6 268.3L309.5 265L309.6 261.6L310.4 261.3L311.1 260.6L312.4 255.2L314.3 250.1L316.7 245.2L319.5 240.5Z" stroke="white"/>
<path d="M342.5 258.5L341.5 259L340.7 259.7L340 260.5L339.5 261.5V258.5L335.9 258.1L332.5 257.2L329.4 255.6L326.5 253.5L328 252.5L331.2 254L334.5 255.3L337.9 256.3L341.4 257L342.1 257.7L342.5 258.5Z" stroke="white"/>
<path d="M619.5 250.5L618.7 254.5L618.5 258.5H617.5V255L618 251.5L618.7 250.8L619.5 250.5Z" stroke="white"/>
<path d="M364.5 237.5L463.9 278.2L563.5 318.5L563.8 316.2L564.4 314.1L565.3 312.2L566.6 310.5L566.1 313.4L565.5 316.2L564.6 318.9L563.6 321.5L464 281.1L364.6 240.5V237.5" stroke="white"/>
<path d="M394.5 207.5L456 232.4L517.5 257.5L532.1 263.7L546.8 269.7L561.6 275.5L576.5 281.1L582.4 284.5L588.5 287.6L584.5 288.6L558.2 277.2L531.8 266.2L505.2 255.5L478.5 245L457.2 235.4L435.8 226.1L414.2 217.1L392.5 208.4H393.2L393.8 208.3L394.2 207.9L394.5 207.5Z" stroke="white"/>
<path d="M597.5 276.5L597.2 279.5L596.5 282.5L558 267.1L519.5 251.5L519.2 250.7L518.5 250L510.5 248L454.8 224.6L399 201.5L396.7 202.2L395 203.4L393.9 205.2L393.4 207.5L392.8 206.9L392.4 206.2L392.3 205.4L392.4 204.5L392.5 203.4L392.9 202.5L393.5 201.7L394.4 201L393.2 200.8L392.1 201L391.2 201.6L390.4 202.5V201.8L390.2 201.2L389.9 200.8L389.4 200.5L390 199.7L390.2 198.9L390 198.2L389.4 197.5L381.8 194.8L374.4 191.5L373.6 190.7L373.4 190.1L373.8 189.7L374.8 189.5L485.5 234.7L596.3 279.5L596.2 278.6L596.3 277.8L596.7 277.1L597.5 276.5Z" stroke="white"/>
<path d="M313.5 260.5L312.8 264L312.6 267.5L312.8 271L313.5 274.5L312.7 274.2L312 273.5L311.5 268.5V263.5L313.5 260.5Z" stroke="white"/>
<path d="M603.5 267.5L605.1 267.8L606.5 268.5L607.5 270.5H605.5L603.8 271L602.5 272L601.5 273.5L600.7 273.8L600 274.5L599.5 277.5V280.5L598.8 278.4L598.6 276L598.8 273.4L599.5 270.5H600.5L601.8 268.8L603.5 267.5Z" stroke="white"/>
<path d="M607.5 270.5L614.8 276.7L622.5 282.5L623.1 283.1L623.4 283.8L623.6 284.6L623.5 285.5L615 283.8L606.5 282.5L604.7 282.6L603.1 282.3L601.7 281.6L600.5 280.5L600.7 277L601.5 273.5L602.5 272L603.8 271L605.5 270.5H607.5Z" stroke="white"/>
<path d="M599.5 270.5L598.8 273.4L598.6 276L598.8 278.4L599.5 280.5H600.5L601.7 281.6L603.1 282.3L604.7 282.6L606.5 282.5L604.9 283.1L603.2 283.5L601.4 283.6L599.5 283.5L598.9 282.9L598.2 282.5L597.4 282.4L596.5 282.5L597.2 279.5L597.5 276.5V274.8L597.8 273.2L598.5 271.8L599.5 270.5Z" stroke="white"/>
<path d="M601.5 273.5L600.7 277L600.5 280.5H599.5V277.5L600 274.5L600.7 273.8L601.5 273.5Z" stroke="white"/>
<path d="M308.5 261.5H309.5L309.4 264.9L309.5 268.2L309.9 271.4L310.5 274.5L311.3 277L312.4 279L313.7 280.6L315.3 281.7L317.1 282.3L319.2 282.5L321.5 282.2L324.1 281.5L329.2 277.4L333.8 272.9L337.9 267.9L341.6 262.5L342.4 261.7L343.2 261.4L344 261.7L344.8 262.5L336.7 272.1L328.8 282L327 283.5L325.1 284.7L323.1 285.7L321.1 286.4L319 286.8L316.8 287L314.6 286.9L312.3 286.5L310.8 283.5L309.6 280.5L308.7 277.5L308.1 274.4L307.8 271.3V268.1L308.2 264.8L308.5 261.5Z" stroke="white"/>
<path d="M606.5 268.5L615.4 274.9L624.5 281L625.3 282.6L625.7 284V285.1L625.3 286L624.5 286.7L623.3 287.2L621.7 287.4H619.7L609.5 285.2L599.2 283.4L601.1 283.5L602.9 283.4L604.6 283L606.2 282.4L614.7 283.7L623.2 285.4L623.3 284.5L623.1 283.7L622.8 283L622.2 282.4L614.5 276.6L607.2 270.4L606.5 268.5Z" stroke="white"/>
<path d="M377.5 216.5L475.1 256.4L572.5 297L576.5 298L580.5 298.5L580.4 297.4L580.5 296.3L580.9 295.4L581.5 294.5L581.6 296.2L581.5 297.8L581.1 299.4L580.5 300.9L581.5 301.4L583.5 295.4L583.3 297.5L583.8 299.3L584.8 300.8L586.5 301.9L591.5 302.8L596.5 303.4L601.5 303.6L606.5 303.5L601.5 298L596.8 295.3L592.5 292L591.1 291.3L589.6 290.8L588.1 290.5H586.5L587.8 289.2L588.5 287.5L598.6 294.1L608.5 301L609.6 302.2L610.3 303.5L610.6 305L610.5 306.6L600.5 306.3L590.5 305.6L563.5 296.1L518.3 277L473 258.1L427.6 239.6L382 221.5L376.5 224.5H374.5L376.6 222.4L378.5 220L378.1 219.6L377.5 219.5V216.5Z" stroke="white"/>
<path d="M321.5 288.5L321.2 289.3L320.5 290L318.1 290.4L315.8 290.5L313.6 290.2L311.5 289.5L316.5 289.4L321.5 288.5Z" stroke="white"/>
<path d="M360.5 249.5L409.2 269.1L457.7 289L506.2 309.1L554.5 329.5L552.4 329.7L550.5 330.5L545.6 327.5L540.5 325L494.8 306.8L449.2 288.3L403.8 269.5L358.5 250.5H359.2L359.8 250.4L360.2 250L360.5 249.5Z" stroke="white"/>
<path d="M586.5 290.5H588.1L589.6 290.8L591.1 291.3L592.5 292L596.8 295.3L601.5 298L606.5 303.5L601.5 303.6L596.5 303.4L591.5 302.8L586.5 301.9L584.8 300.8L583.8 299.3L583.3 297.5L583.5 295.4V294.7L583.7 294.1L584 293.7L584.5 293.4L585.4 292.9L586 292.3L586.4 291.4L586.5 290.5Z" stroke="white"/>
<path d="M586.5 290.5L586.4 291.5L586 292.4L585.4 293L584.5 293.5L584.6 292.5L585 291.6L585.6 291L586.5 290.5Z" stroke="white"/>
<path d="M588.5 287.5L587.8 289.2L586.5 290.5L585.6 291L585 291.6L584.6 292.5L584.5 293.5L584 293.8L583.7 294.2L583.5 294.8V295.5L581.5 301.5L580.5 301L581.1 299.5L581.5 297.9L581.6 296.3L581.5 294.6L582.7 291.4L584.5 288.6L588.5 287.5Z" stroke="white"/>
<path d="M570.5 306.5H571.2L571.8 306.6L572.2 307L572.5 307.5V309.5L571.1 309.7L569.9 310.3L569.1 311.2L568.5 312.5L566.7 317.1L564.5 321.5H563.5L564.5 318.9L565.4 316.2L566 313.4L566.5 310.5L566.8 309.7L567.6 309.4L569.3 308.1L570.5 306.5Z" stroke="white"/>
<path d="M572.5 309.5L577.2 312.5L581.8 315.7L586.2 319L590.5 322.5L585 322.6L579.5 322.4L574 321.9L568.5 321L568.1 318.9L567.9 316.8L568.1 314.7L568.5 312.5L569.1 311.2L569.9 310.3L571.1 309.7L572.5 309.5Z" stroke="white"/>
<path d="M350.5 261.5L392.1 278.3L433.6 295.3L475.1 312.5L516.5 330L523.8 333L531.3 335.8L538.8 338.3L546.4 340.5L546.3 339.4L546.4 338.3L546.8 337.4L547.4 336.5L547.5 338.4L547.2 340.1L546.5 341.6L545.4 343L546.7 343.3L547.7 343.4L548.5 343.3L549 343L549.3 342.5V342L549 341.1L548.5 340L548.6 338.8L549 337.8L549.6 337L550.5 336.4V343.4L560.7 345.1L571 346.4L572.5 345.4L565.7 339.5L558.5 333.9L557.1 333.2L555.6 332.7L554.1 332.4H552.5L556.5 330.4L561.5 333.5L566.4 336.9L571.1 340.5L575.5 344.4L574.5 344.8L573.8 345.4L573.5 346.3V347.4L572.3 347.3L571.3 347.4L570.3 347.8L569.5 348.4L544.5 343.9L362.5 267.9L358.6 266.4L354.6 265.1L350.6 264.1L346.5 263.4L350.5 261.5Z" stroke="white"/>
<path d="M572.5 307.5L575.1 308.3L577.5 309.6L584.8 315.8L592.5 321.6L593.2 322.7L593.4 323.8L593.2 324.9L592.5 326L566.5 323L565.3 322.4L564.5 321.5L566.7 317.1L568.5 312.5L568.1 314.7L567.9 316.8L568.1 318.9L568.5 321L574 321.9L579.5 322.4L585 322.6L590.5 322.5L586.2 319L581.8 315.7L577.2 312.5L572.5 309.5V307.5Z" stroke="white"/>
<path d="M552.5 332.5H554.1L555.6 332.8L557.1 333.3L558.5 334L565.7 339.6L572.5 345.5L571 346.5L560.7 345.2L550.5 343.5V336.5L550.7 335.3L551.1 334.2L551.7 333.3L552.5 332.5Z" stroke="white"/>
<path d="M554.5 329.5L556.5 330.5L552.5 332.5L551.7 333.3L551.1 334.2L550.7 335.3L550.5 336.5L549.6 337.1L549 337.9L548.6 338.9L548.5 340.1L549 341.2L549.3 342.1V342.8L549 343.3L548.5 343.6L547.7 343.7L546.7 343.6L545.4 343.3L546.5 341.9L547.2 340.4L547.5 338.7L547.4 336.8L547.6 335L548.1 333.4L549.1 332L550.4 330.8L552.3 330L554.5 329.5Z" stroke="white"/>
<path d="M575.5 344.5L575.6 345.7L575.5 346.7L575.1 347.7L574.5 348.5H569.5L570.3 347.9L571.3 347.5L572.3 347.4L573.5 347.5V346.4L573.8 345.5L574.5 344.9L575.5 344.5Z" stroke="white"/>
<path d="M118.5 276.5L137.6 283L156.5 290L228.5 320.3L300.7 350.2L373 379.8L445.5 409L457.8 414.6L470.2 419.9L482.8 424.9L495.5 429.6H494.4L493.5 429.9L492.9 430.6L492.5 431.6L120 278.5L119.3 278.2L118.8 277.8L118.5 277.2V276.5Z" stroke="white"/>
<path d="M570.5 348.5H574.5L537.9 393.6L501 438.5L500.7 437.6V436.7L501 435.9L501.6 435.1L498.4 434.6L495.6 433.6L497 433.7L498.3 433.6L499.5 433.2L500.6 432.6L502.3 432.4L503.9 431.8L505.3 430.9L506.6 429.6L522 409.7L537.7 390.1L553.7 370.7L570.1 351.6L570.6 350.1L570.5 348.5Z" stroke="white"/>
<path d="M495.5 429.5L498.1 430.8L500.5 432.5L499.4 433.1L498.2 433.5L496.9 433.6L495.5 433.5L492.5 431.5L492.9 430.5L493.5 429.8L494.4 429.5H495.5Z" stroke="white"/>
</svg>
